<svg width="18" height="18" viewBox="0 0 18 18" fill="none" xmlns="http://www.w3.org/2000/svg">
<path d="M1.818 18C1.29975 18 0.867375 17.8267 0.520875 17.4802C0.174375 17.1337 0.00075 16.701 0 16.182V1.818C0 1.29975 0.173625 0.867375 0.520875 0.520875C0.868125 0.174375 1.3005 0.00075 1.818 0H16.1831C16.7006 0 17.133 0.173625 17.4802 0.520875C17.8275 0.868125 18.0007 1.3005 18 1.818V16.1831C18 16.7006 17.8267 17.133 17.4802 17.4802C17.1337 17.8275 16.701 18.0007 16.182 18H1.818ZM1.125 10.485C1.419 10.1775 1.76212 9.94687 2.15437 9.79312C2.54512 9.63937 2.952 9.5625 3.375 9.5625H14.625C15.048 9.5625 15.4552 9.63937 15.8467 9.79312C16.2382 9.94687 16.581 10.1771 16.875 10.4839V1.818C16.875 1.64475 16.803 1.48575 16.659 1.341C16.515 1.19625 16.356 1.12425 16.182 1.125H1.818C1.64475 1.125 1.48575 1.197 1.341 1.341C1.19625 1.485 1.12425 1.644 1.125 1.818V10.485Z" fill="#32616A"/>
</svg>
