<svg width="24" height="24" viewBox="0 0 24 24" fill="none" xmlns="http://www.w3.org/2000/svg">
<path d="M22 12.698C21.998 14.168 21.987 15.416 21.904 16.441C21.807 17.631 21.608 18.625 21.164 19.45C20.97 19.8116 20.7241 20.1428 20.434 20.433C19.601 21.266 18.541 21.643 17.197 21.823C15.884 22 14.2 22 12.053 22H11.947C9.79901 22 8.11701 22 6.80301 21.823C5.46001 21.643 4.39901 21.266 3.56701 20.433C2.82901 19.695 2.44701 18.777 2.24501 17.638C2.04501 16.518 2.00901 15.126 2.00201 13.397C2.00001 12.957 1.99934 12.4914 2.00001 12V11.946C2.00001 9.79802 2.00001 8.11602 2.17701 6.80202C2.35701 5.45902 2.73401 4.39802 3.56701 3.56602C4.40001 2.73402 5.46001 2.35602 6.80301 2.17602C7.97101 2.01902 9.47301 2.00102 11.302 1.99902C11.4871 1.99902 11.6647 2.07256 11.7956 2.20346C11.9265 2.33436 12 2.5119 12 2.69702C12 2.88214 11.9265 3.05968 11.7956 3.19058C11.6647 3.32148 11.4871 3.39502 11.302 3.39502C9.44701 3.39702 8.06801 3.41302 6.98901 3.55802C5.80001 3.71802 5.08301 4.02202 4.55301 4.55202C4.02301 5.08202 3.72001 5.80002 3.56001 6.99002C3.39701 8.20002 3.39501 9.78802 3.39501 12V12.784L4.32701 11.97C4.73553 11.6126 5.26463 11.4238 5.80715 11.4418C6.34968 11.4598 6.86508 11.6833 7.24901 12.067L11.239 16.057C11.5486 16.3668 11.9575 16.5574 12.3938 16.5952C12.8301 16.6331 13.2657 16.5158 13.624 16.264L13.902 16.069C14.4188 15.7058 15.0435 15.5287 15.674 15.5666C16.3046 15.6046 16.9035 15.8554 17.373 16.278L20.006 18.648C20.271 18.091 20.429 17.36 20.513 16.328C20.592 15.356 20.603 14.176 20.604 12.698C20.604 12.5129 20.6775 12.3354 20.8084 12.2045C20.9393 12.0736 21.1169 12 21.302 12C21.4871 12 21.6647 12.0736 21.7956 12.2045C21.9265 12.3354 22 12.5129 22 12.698Z" fill="#32616A"/>
<path fill-rule="evenodd" clip-rule="evenodd" d="M17.5 11C15.379 11 14.318 11 13.659 10.341C13 9.682 13 8.621 13 6.5C13 4.379 13 3.318 13.659 2.659C14.318 2 15.379 2 17.5 2C19.621 2 20.682 2 21.341 2.659C22 3.318 22 4.379 22 6.5C22 8.621 22 9.682 21.341 10.341C20.682 11 19.621 11 17.5 11ZM18.25 4.5C18.25 4.30109 18.171 4.11032 18.0303 3.96967C17.8897 3.82902 17.6989 3.75 17.5 3.75C17.3011 3.75 17.1103 3.82902 16.9697 3.96967C16.829 4.11032 16.75 4.30109 16.75 4.5V5.75H15.5C15.3011 5.75 15.1103 5.82902 14.9697 5.96967C14.829 6.11032 14.75 6.30109 14.75 6.5C14.75 6.69891 14.829 6.88968 14.9697 7.03033C15.1103 7.17098 15.3011 7.25 15.5 7.25H16.75V8.5C16.75 8.69891 16.829 8.88968 16.9697 9.03033C17.1103 9.17098 17.3011 9.25 17.5 9.25C17.6989 9.25 17.8897 9.17098 18.0303 9.03033C18.171 8.88968 18.25 8.69891 18.25 8.5V7.25H19.5C19.6989 7.25 19.8897 7.17098 20.0303 7.03033C20.171 6.88968 20.25 6.69891 20.25 6.5C20.25 6.30109 20.171 6.11032 20.0303 5.96967C19.8897 5.82902 19.6989 5.75 19.5 5.75H18.25V4.5Z" fill="#32616A"/>
</svg>
