<svg width="1920" height="960" viewBox="0 0 1920 960" fill="none" xmlns="http://www.w3.org/2000/svg">
<mask id="mask0_627_117" style="mask-type:luminance" maskUnits="userSpaceOnUse" x="0" y="0" width="1920" height="960">
<path d="M0 0H1920V879.5C1920 879.5 1670.23 912.822 1509.5 927.5C1296.03 946.994 1175.85 957.165 961.5 959C771.011 960.63 664.161 953.291 474 942C288.576 930.991 0 902.5 0 902.5V0Z" fill="white"/>
</mask>
<g mask="url(#mask0_627_117)">
<rect width="1920" height="959" fill="#307D87"/>
<path d="M0 0H1920V634.5C1920 634.5 1890.55 654.42 1870 664C1848.45 674.046 1835.31 677.308 1812.5 684C1785.96 691.786 1770.73 695.156 1743.5 700C1707.92 706.329 1687.57 707.676 1651.5 710C1598.69 713.402 1568.71 714.705 1516 710C1487.53 707.459 1471.58 705.304 1443.5 700C1416.28 694.859 1401.33 690.415 1374.5 683.5C1334.58 673.212 1313.49 662.239 1273 654.5C1231.38 646.544 1207.37 644.339 1165 644C1107.62 643.541 1074.9 647.54 1019 660.5C963.046 673.474 934.784 691.228 880.5 710C802.01 737.143 761.144 768.294 678.5 776.5C594.702 784.821 542.772 781.063 464.5 750C408.401 727.737 383.474 701.842 333.5 668C299.538 645.001 284.398 625.91 248 607C207.617 586.02 182.007 579.49 137.5 570C84.8306 558.769 0 559.5 0 559.5V0Z" fill="#54CAD2"/>
<path d="M62 916.5C62 916.5 136.607 832.842 214.5 795C296.589 755.12 347.029 740.001 436.5 722C520.469 705.107 569.348 703.067 655 703C741.43 702.933 789.768 711.037 875.5 722C1041.35 743.209 1132.18 769.883 1294.5 810C1473.46 854.232 1748 941 1748 941V959.25H62V916.5Z" fill="#B3E5ED"/>
</g>
</svg>
