<svg width="1920" height="445" viewBox="0 0 1920 445" fill="none" xmlns="http://www.w3.org/2000/svg">
<path d="M0 0H1920V358C1919.29 355.381 1843.5 320 1790.5 306.5C1737.5 293 1707.51 289.055 1653.5 285.5C1612.39 282.794 1589.14 283.233 1548 285.5C1510.75 287.552 1489.79 289.323 1453 295.5C1397.42 304.832 1368.45 319.972 1313.5 332.5C1280.46 340.033 1228.5 350 1228.5 350C1228.5 350 1173.39 355.875 1138 355C1088.14 353.767 1059.92 349.449 1011.5 337.5C959.557 324.681 933.893 306.5 883 290C833.605 273.985 805.851 264.514 755 254C675.866 237.639 629.474 227.169 549 234.5C486.835 240.163 451 241 393.5 271.5C336 302 324.134 319.242 278.5 348C236.712 374.335 215.672 394.192 170 413C107.534 438.724 0 445 0 445V0Z" fill="#77DAE7"/>
</svg>
