<svg width="19" height="16" viewBox="0 0 19 16" fill="none" xmlns="http://www.w3.org/2000/svg">
<path fill-rule="evenodd" clip-rule="evenodd" d="M18.5077 0.303953C18.645 0.414902 18.7586 0.551224 18.842 0.705133C18.9254 0.859042 18.977 1.02752 18.9939 1.20095C19.0108 1.37439 18.9926 1.54937 18.9403 1.71591C18.888 1.88246 18.8028 2.0373 18.6893 2.17159L7.78931 15.0779L7.78525 15.0806C7.5376 15.3723 7.22651 15.6062 6.87469 15.7652C6.52287 15.9242 6.13919 16.0044 5.75166 15.9998C5.35831 15.9954 4.97109 15.9039 4.61911 15.732C4.26712 15.5602 3.95952 15.3125 3.71943 15.0076L3.71807 15.005L0.304357 10.7126C0.190371 10.5756 0.1055 10.4177 0.0547227 10.2482C0.00394556 10.0787 -0.0117143 9.90096 0.00866215 9.72544C0.0290386 9.54993 0.0850408 9.38016 0.173382 9.2261C0.261724 9.07205 0.380625 8.93681 0.523109 8.82833C0.665592 8.71984 0.828788 8.64029 1.00312 8.59435C1.17745 8.5484 1.3594 8.53699 1.5383 8.56078C1.7172 8.58457 1.88944 8.64308 2.04492 8.73288C2.20039 8.82268 2.33597 8.94196 2.44369 9.08371L5.7842 13.2846L16.5975 0.481697C16.7109 0.34738 16.8502 0.236234 17.0075 0.154607C17.1648 0.0729807 17.337 0.0224722 17.5143 0.00596668C17.6915 -0.0105389 17.8704 0.00728169 18.0406 0.0584106C18.2108 0.10954 18.3691 0.192975 18.5063 0.303953H18.5077Z" fill="#32616A"/>
</svg>
